<svg xmlns="http://www.w3.org/2000/svg" 
     viewBox="0 0 221 240"
     width="221" 
     height="240">
  
  <!-- Triángulo blanco con borde -->
  <path 
    d="M12.84 204.77L66.61 112.56L120.38 204.77H12.84Z"
    stroke="#ffffff"
    stroke-width="4.5"
    fill="none"/>

  <!-- Forma blanca con borde -->
  <path
    d="M24.41 58.72L113.51 20.17L65.99 113.17L24.41 58.72Z"
    stroke="#ffffff"
    stroke-width="4.5"
    fill="none"/>

  <!-- Icono/detalle complejo blanco -->
  <path
    d="M102.76 127.23L121.78 123.79L122.92 129.56L109.9 131.92L111.27 138.79L122.55 136.75L123.7 142.52L112.42 144.56L114.78 156.47L108.79 157.55L102.76 127.23ZM126.74 144.74C126.38 142.9 126.48 141.18 127.04 139.57C127.63 137.96 128.63 136.59 130.04 135.49C131.44 134.35 133.16 133.6 135.2 133.23C137.27 132.86 139.14 132.96 140.83 133.54C142.51 134.09 143.89 135.01 144.98 136.33C146.1 137.63 146.84 139.21 147.2 141.04C147.57 142.88 147.48 144.62 146.95 146.25C146.44 147.85 145.51 149.22 144.17 150.34C142.82 151.47 141.09 152.22 138.97 152.61C136.98 152.96 135.13 152.9 133.41 152.42C131.71 151.93 130.28 151.03 129.11 149.74C127.93 148.44 127.15 146.78 126.74 144.74ZM132.58 143.73C132.76 144.67 133.13 145.48 133.66 146.18C134.2 146.85 134.84 147.35 135.59 147.67C136.34 147.99 137.12 148.07 137.95 147.92C138.86 147.76 139.6 147.4 140.18 146.84C140.75 146.28 141.14 145.6 141.35 144.79C141.56 143.96 141.57 143.07 141.38 142.14C141.19 141.18 140.84 140.36 140.34 139.68C139.83 139.01 139.2 138.51 138.46 138.19C137.71 137.87 136.88 137.79 135.97 137.96C135.14 138.1 134.44 138.46 133.87 139.02C133.29 139.58 132.89 140.26 132.65 141.07C132.41 141.88 132.39 142.77 132.58 143.73ZM149.37 140.65C149.01 138.81 149.1 137.09 149.67 135.48C150.26 133.86 151.26 132.5 152.67 131.39C154.07 130.26 155.79 129.51 157.83 129.14C159.89 128.76 161.77 128.87 163.46 129.44C165.13 129.99 166.52 130.92 167.61 132.23C168.72 133.54 169.46 135.11 169.83 136.95C170.19 138.79 170.11 140.53 169.58 142.16C169.07 143.76 168.14 145.12 166.79 146.25C165.45 147.38 163.71 148.13 161.59 148.51C159.61 148.87 157.76 148.81 156.03 148.32C154.34 147.83 152.9 146.94 151.73 145.65C150.56 144.35 149.77 142.68 149.37 140.65ZM155.21 139.64C155.39 140.57 155.75 141.39 156.29 142.09C156.82 142.76 157.47 143.26 158.21 143.58C158.96 143.9 159.75 143.98 160.58 143.83C161.49 143.67 162.23 143.31 162.8 142.75C163.38 142.19 163.77 141.51 163.98 140.7C164.18 139.87 164.2 138.98 164.01 138.05C163.82 137.09 163.47 136.27 162.96 135.59C162.46 134.91 161.83 134.42 161.08 134.1C160.33 133.78 159.51 133.7 158.6 133.86C157.77 134.01 157.07 134.37 156.49 134.93C155.92 135.49 155.51 136.17 155.28 136.98C155.04 137.79 155.01 138.68 155.21 139.64ZM182.69 144.7C181.01 145 179.43 144.89 177.96 144.36C176.48 143.8 175.2 142.85 174.14 141.51C173.1 140.16 172.38 138.47 171.97 136.44C171.57 134.4 171.64 132.6 172.18 131.02C172.72 129.44 173.64 128.15 174.92 127.15C176.21 126.15 177.76 125.49 179.58 125.16C180.74 124.95 181.87 124.93 182.99 125.1C184.14 125.26 185.14 125.65 186.01 126.26L186.37 128.07L182.87 110.48L188.61 109.44L195.07 141.95L189.29 142.99L188.59 139.49L189.29 140.64C188.51 141.58 187.59 142.43 186.54 143.19C185.49 143.92 184.21 144.42 182.69 144.7ZM183.63 139.49C184.4 139.35 185.05 139.13 185.59 138.84C186.16 138.51 186.62 138.11 186.99 137.65C187.37 137.15 187.67 136.57 187.88 135.91L187 131.5C186.66 130.93 186.22 130.49 185.67 130.16C185.14 129.8 184.52 129.57 183.82 129.47C183.14 129.34 182.41 129.34 181.64 129.48C180.78 129.64 180.03 130 179.37 130.57C178.74 131.12 178.27 131.8 177.98 132.62C177.68 133.44 177.63 134.33 177.82 135.29C178.02 136.25 178.41 137.08 179 137.77C179.6 138.46 180.29 138.96 181.1 139.27C181.93 139.57 182.77 139.65 183.63 139.49ZM205.99 140.36C204.5 140.63 203.05 140.62 201.66 140.33C200.29 140.04 199.07 139.5 198 138.73L199.76 135.12C200.8 135.76 201.73 136.19 202.55 136.41C203.38 136.6 204.11 136.64 204.71 136.53C205.18 136.45 205.59 136.33 205.93 136.18C206.29 136.01 206.56 135.8 206.75 135.57C206.92 135.31 206.98 135.01 206.91 134.68C206.82 134.22 206.55 133.88 206.11 133.68C205.7 133.47 205.19 133.33 204.58 133.27C203.96 133.18 203.3 133.1 202.6 133.03C200.85 132.81 199.5 132.27 198.56 131.41C197.64 130.53 197.06 129.49 196.83 128.31C196.65 127.41 196.7 126.46 196.99 125.47C197.3 124.44 197.92 123.54 198.85 122.74C199.79 121.92 201.11 121.35 202.79 121.05C204.3 120.77 205.62 120.69 206.72 120.81C207.83 120.92 208.92 121.23 209.99 121.75L208.48 125.53C207.87 125.21 207.21 124.97 206.49 124.82C205.8 124.63 205.17 124.57 204.62 124.64C204.12 124.71 203.7 124.84 203.37 125.04C203.07 125.24 202.84 125.46 202.69 125.72C202.54 125.97 202.49 126.22 202.54 126.47C202.62 127 202.89 127.37 203.37 127.6C203.87 127.82 204.46 127.96 205.16 128C205.85 128.05 206.54 128.12 207.21 128.23C208.15 128.34 208.98 128.58 209.71 128.93C210.43 129.28 211.03 129.76 211.49 130.36C211.97 130.92 212.31 131.66 212.49 132.57C212.71 133.66 212.62 134.76 212.24 135.85C211.88 136.91 211.18 137.85 210.15 138.66C209.14 139.47 207.75 140.04 205.99 140.36Z"
    fill="#ffffff"/>

  <!-- Detalle adicional blanco -->
  <path
    d="M140.01 88.03C138.74 87.58 137.46 87.25 136.17 87.03C134.9 86.81 133.75 86.78 132.7 86.95C131.4 87.16 130.42 87.59 129.77 88.23C129.12 88.88 128.88 89.72 129.07 90.77C129.2 91.49 129.59 92.09 130.25 92.58C130.93 93.04 131.75 93.42 132.71 93.71C133.7 94.01 134.71 94.26 135.74 94.46C136.69 94.65 137.63 94.91 138.57 95.24C139.53 95.54 140.42 95.98 141.24 96.56C142.04 97.11 142.75 97.86 143.34 98.81C143.94 99.74 144.36 100.93 144.62 102.39C144.9 103.93 144.75 105.43 144.19 106.88C143.62 108.34 142.64 109.6 141.24 110.68C139.83 111.72 138 112.43 135.73 112.79C134.57 112.98 133.36 113.06 132.1 113.04C130.87 112.98 129.63 112.81 128.39 112.53C127.14 112.22 125.91 111.78 124.7 111.21L126.52 106.11C127.33 106.51 128.19 106.86 129.09 107.14C130.02 107.39 130.93 107.55 131.82 107.64C132.72 107.72 133.53 107.7 134.25 107.59C134.96 107.47 135.67 107.26 136.35 106.95C137.06 106.61 137.6 106.16 137.98 105.58C138.39 105.01 138.52 104.28 138.36 103.4C138.25 102.79 137.95 102.27 137.44 101.84C136.97 101.41 136.35 101.04 135.58 100.74C134.85 100.43 134.05 100.19 133.19 100.02C132.19 99.81 131.15 99.55 130.07 99.24C128.99 98.93 127.95 98.52 126.95 98C125.97 97.45 125.11 96.72 124.38 95.82C123.68 94.88 123.19 93.68 122.93 92.22C122.62 90.46 122.73 88.87 123.27 87.45C123.84 86.02 124.78 84.82 126.09 83.85C127.39 82.84 128.97 82.15 130.83 81.77C133.29 81.37 135.34 81.34 136.96 81.68C138.61 82.01 140.12 82.47 141.48 83.08L140.01 88.03ZM147.58 110.55L155.71 76.71L156.04 76.65L175.45 106.07L168.48 107.19L155.72 86.36L159.54 82.68L153.51 109.6L147.58 110.55ZM155.03 98.04L164.2 96.57L167.21 101.27L154.07 103.38L155.03 98.04Z"
    fill="#ffffff"/>

</svg>